<?xml version="1.0" standalone="no"?>
<!DOCTYPE svg PUBLIC "-//W3C//DTD SVG 20010904//EN"
 "http://www.w3.org/TR/2001/REC-SVG-20010904/DTD/svg10.dtd">
<svg version="1.0" xmlns="http://www.w3.org/2000/svg"
 width="640.000000pt" height="480.000000pt" viewBox="0 0 640.000000 480.000000"
 preserveAspectRatio="xMidYMid meet">

<g transform="translate(0.000000,480.000000) scale(0.100000,-0.100000)"
fill="#000000" stroke="none">
<path d="M2000 3900 l0 -500 -800 0 -800 0 0 -1500 0 -1500 2800 0 2800 0 0
1400 0 1400 -700 0 -700 0 0 600 0 600 -1300 0 -1300 0 0 -500z m2200 -500 l0
-600 700 0 700 0 0 -1000 0 -1000 -2400 0 -2400 0 0 1100 0 1100 800 0 800 0
0 500 0 500 900 0 900 0 0 -600z"/>
<path d="M3163 3785 c-7 -8 -13 -30 -13 -50 0 -19 -4 -35 -9 -35 -5 0 -11 -18
-15 -40 -3 -22 -11 -40 -16 -40 -6 0 -10 -11 -10 -25 0 -14 -4 -25 -10 -25 -5
0 -12 -11 -16 -25 -3 -14 -10 -25 -15 -25 -5 0 -9 -7 -9 -15 0 -19 -67 -85
-86 -85 -8 0 -14 -4 -14 -10 0 -5 -11 -10 -25 -10 l-25 0 0 -200 0 -200 59 0
c33 0 61 4 63 9 2 6 19 13 38 16 19 3 37 10 38 16 2 5 13 9 24 9 10 0 26 7 34
15 9 8 22 15 30 15 12 0 14 -52 14 -340 l0 -340 200 0 200 0 0 700 0 700 -212
0 c-171 -1 -215 -4 -225 -15z"/>
<path d="M1600 2591 c0 -5 -18 -11 -40 -15 -22 -3 -40 -11 -40 -16 0 -6 -16
-10 -35 -10 -24 0 -35 -5 -35 -15 0 -8 -7 -15 -15 -15 -8 0 -15 -4 -15 -10 0
-5 -7 -10 -15 -10 -8 0 -35 -20 -60 -45 -25 -25 -45 -52 -45 -60 0 -8 -4 -15
-10 -15 -5 0 -10 -7 -10 -15 0 -8 -7 -15 -15 -15 -9 0 -15 -9 -15 -25 0 -14
-4 -25 -9 -25 -5 0 -12 -22 -16 -50 -4 -27 -11 -50 -16 -50 -5 0 -9 -45 -9
-100 l0 -100 200 0 200 0 0 71 c0 65 2 73 29 100 41 41 101 41 142 0 26 -27
29 -36 29 -96 0 -60 -3 -69 -29 -96 -16 -16 -32 -29 -36 -29 -10 0 -35 -28
-35 -39 0 -6 -11 -11 -25 -11 -14 0 -25 -5 -25 -11 0 -12 -25 -39 -36 -39 -3
0 -21 -16 -40 -35 -18 -19 -37 -35 -43 -35 -5 0 -21 -11 -35 -25 -14 -14 -30
-25 -36 -25 -5 0 -10 -7 -10 -15 0 -8 -5 -15 -10 -15 -10 0 -22 -8 -55 -37 -7
-7 -16 -13 -20 -13 -4 0 -24 -18 -46 -40 -22 -22 -46 -40 -54 -40 -8 0 -15 -4
-15 -10 0 -5 -5 -10 -11 -10 -33 0 -39 -28 -39 -189 l0 -161 500 0 500 0 0
200 0 200 -125 0 c-117 0 -155 9 -104 25 24 8 129 110 129 126 0 5 11 20 25
33 14 13 25 33 25 45 0 11 4 21 9 21 5 0 11 18 15 40 3 22 11 40 16 40 6 0 10
53 10 135 0 74 -4 135 -9 135 -5 0 -12 23 -16 50 -4 28 -11 50 -16 50 -5 0 -9
11 -9 25 0 16 -6 25 -15 25 -8 0 -15 7 -15 15 0 8 -4 15 -10 15 -5 0 -10 7
-10 15 0 19 -86 105 -105 105 -8 0 -15 5 -15 10 0 6 -7 10 -15 10 -8 0 -15 7
-15 15 0 9 -9 15 -25 15 -14 0 -25 4 -25 9 0 5 -22 12 -50 16 -27 4 -50 11
-50 16 0 5 -45 9 -100 9 -55 0 -100 -4 -100 -9z"/>
<path d="M4200 2200 l0 -200 50 0 c53 0 67 -15 25 -26 -14 -3 -25 -10 -25 -15
0 -5 -5 -9 -11 -9 -33 0 -39 -28 -39 -189 l0 -161 271 0 271 0 29 -29 c23 -23
29 -38 29 -71 0 -33 -6 -48 -29 -71 l-29 -29 -271 0 -271 0 0 -200 0 -200 300
0 c173 0 300 4 300 9 0 5 23 12 50 16 28 4 50 11 50 16 0 5 11 9 25 9 16 0 25
6 25 15 0 8 7 15 15 15 8 0 15 5 15 10 0 6 7 10 15 10 19 0 105 86 105 105 0
8 5 15 10 15 6 0 10 7 10 15 0 8 7 15 15 15 9 0 15 9 15 25 0 14 4 25 9 25 5
0 12 23 16 50 4 28 11 50 16 50 5 0 9 45 9 100 0 60 -4 100 -10 100 -5 0 -10
11 -10 24 0 14 -7 31 -15 40 -8 8 -15 22 -15 31 0 9 -11 26 -25 39 -14 13 -25
26 -25 30 0 11 -27 36 -39 36 -6 0 -11 5 -11 11 0 14 -25 39 -39 39 -6 0 -11
4 -11 9 0 5 -11 12 -25 15 -14 4 -25 11 -25 16 0 6 -9 10 -20 10 -20 0 -60 28
-60 42 0 5 7 8 15 8 8 0 15 5 15 11 0 12 25 39 36 39 4 0 17 11 30 25 13 14
28 25 34 25 5 0 19 9 30 20 18 18 20 33 20 175 l0 155 -425 0 -425 0 0 -200z"/>
</g>
</svg>
