<?xml version="1.0" encoding="iso-8859-1"?>
<!-- Generator: Adobe Illustrator 19.0.0, SVG Export Plug-In . SVG Version: 6.00 Build 0)  -->
<svg version="1.1" id="Layer_1" xmlns="http://www.w3.org/2000/svg" xmlns:xlink="http://www.w3.org/1999/xlink" x="0px" y="0px"
	 viewBox="0 0 480 480" style="enable-background:new 0 0 480 480;" xml:space="preserve">
<g>
	<g>
		<g>
			<path d="M470,228.13h-33.425c-5.852-99.045-85.567-178.541-184.706-184.032V10c0-5.523-4.477-10-10-10s-10,4.477-10,10v34.002
				C131.829,48.565,51.107,128.445,45.217,228.13H10c-5.523,0-10,4.477-10,10s4.477,10,10,10h35.048
				c4.248,101.27,85.656,182.921,186.821,187.537V470c0,5.523,4.477,10,10,10s10-4.477,10-10v-34.429
				c100.26-5.555,180.655-86.814,184.875-187.441H470c5.523,0,10-4.477,10-10C480,232.607,475.523,228.13,470,228.13z
				 M251.869,64.137c88.106,5.44,158.87,75.981,164.666,163.993H387.09c-5.688-71.799-63.319-129.206-135.221-134.543V64.137z
				 M231.869,64.015v29.45c-72.812,4.448-131.438,62.228-137.178,134.665H65.257C71.096,139.478,142.858,68.539,231.869,64.015z
				 M231.869,415.653c-90.136-4.581-162.591-77.282-166.808-167.523h29.405c4.159,74.035,63.466,133.568,137.403,138.087V415.653z
				 M241.869,306.667c-5.523,0-10,4.477-10,10v49.511c-62.904-4.457-113.26-55.044-117.363-118.048h48.827c5.523,0,10-4.477,10-10
				c0-5.523-4.477-10-10-10H114.77c5.646-61.401,55.321-110.25,117.099-114.626v49.829c0,5.523,4.477,10,10,10
				c5.523,0,10-4.477,10-10v-49.675c60.865,5.242,109.557,53.71,115.143,114.472h-50.346c-5.523,0-10,4.477-10,10
				c0,5.523,4.477,10,10,10h50.61c-4.06,62.359-53.42,112.553-115.407,117.895v-49.358
				C251.869,311.144,247.392,306.667,241.869,306.667z M251.869,415.532v-29.437c73.023-5.422,131.324-64.572,135.446-137.965
				h29.416C412.544,337.727,341.097,410.021,251.869,415.532z"/>
			<path d="M285.594,234.715c0-24.825-20.208-45.023-45.046-45.023c-24.851,0-45.068,20.197-45.068,45.023
				c0,24.85,20.218,45.066,45.068,45.066C265.386,279.781,285.594,259.564,285.594,234.715z M240.548,259.782
				c-13.823,0-25.068-11.245-25.068-25.066c0-13.798,11.246-25.023,25.068-25.023c13.811,0,25.046,11.225,25.046,25.023
				C265.594,248.537,254.358,259.782,240.548,259.782z"/>
		</g>
	</g>
</g>
<g>
</g>
<g>
</g>
<g>
</g>
<g>
</g>
<g>
</g>
<g>
</g>
<g>
</g>
<g>
</g>
<g>
</g>
<g>
</g>
<g>
</g>
<g>
</g>
<g>
</g>
<g>
</g>
<g>
</g>
</svg>
